<svg xmlns="http://www.w3.org/2000/svg" viewBox="0 0 32 32" id="ContentWrite"><path d="M5,30H23a3,3,0,0,0,3-3V19.93L29.9,8.24a2,2,0,0,0-1.27-2.53L26,4.83A3,3,0,0,0,23,2H10a1,1,0,0,0-.71.29l-7,7A1,1,0,0,0,2,10V27A3,3,0,0,0,5,30Zm18.57-9.11-3.79-1.27L23.26,9.19l3.79,1.26ZM22,22.47l-1.37,1-.53-1.58ZM24.21,6.34,28,7.61l-.32,1L23.89,7.29ZM9,5.41V8A1,1,0,0,1,8,9H5.41ZM4,11H8a3,3,0,0,0,3-3V4H23a1,1,0,0,1,.78.4,2,2,0,0,0-1.47,1.31L20.21,12H7v2H19.54l-.66,2H7v2H18.21l-.65,1.94a.13.13,0,0,1,0,.06H7v2H18l1.11,3.32a1,1,0,0,0,.63.63,1.12,1.12,0,0,0,.31.05,1,1,0,0,0,.57-.18L24,23.51V27a1,1,0,0,1-1,1H5a1,1,0,0,1-1-1Z" fill="#ffffff" class="color000000 svgShape"></path></svg>